<svg height="512" viewBox="0 0 64 64" width="512" xmlns="http://www.w3.org/2000/svg"><g id="Flat"><g id="Color"><g><g><g><g><g fill="#93999a"><path d="m46 53h13a2 2 0 0 1 2 2v2a0 0 0 0 1 0 0h-15a0 0 0 0 1 0 0v-4a0 0 0 0 1 0 0z"/><path d="m46 37h11v8h-11z"/><path d="m46 29h11v8h-11z"/></g><path d="m50 29h-4v8h11v-4h-3a4 4 0 0 1 -4-4z" fill="#656b76"/><path d="m50 37h-4v8h11v-4h-3a4 4 0 0 1 -4-4z" fill="#656b76"/><path d="m46 45h11v8h-11z" fill="#93999a"/><path d="m50 45h-4v8h11v-4h-3a4 4 0 0 1 -4-4z" fill="#656b76"/><path d="m50 53h-4v4h15v-2h-9a2 2 0 0 1 -2-2z" fill="#656b76"/></g><g><g fill="#93999a"><path d="m3 53h15a0 0 0 0 1 0 0v2a2 2 0 0 1 -2 2h-13a0 0 0 0 1 0 0v-4a0 0 0 0 1 0 0z" transform="matrix(-1 0 0 -1 21 110)"/><path d="m7 37h11v8h-11z" transform="matrix(-1 0 0 -1 25 82)"/><path d="m7 29h11v8h-11z" transform="matrix(-1 0 0 -1 25 66)"/></g><path d="m14 29h4v8h-11v-4h3a4 4 0 0 0 4-4z" fill="#656b76"/><path d="m14 37h4v8h-11v-4h3a4 4 0 0 0 4-4z" fill="#656b76"/><path d="m7 45h11v8h-11z" fill="#93999a" transform="matrix(-1 0 0 -1 25 98)"/><path d="m14 45h4v8h-11v-4h3a4 4 0 0 0 4-4z" fill="#656b76"/><path d="m14 53h4v4h-15v-2h9a2 2 0 0 0 2-2z" fill="#656b76"/></g><g fill="#4891d3"><circle cx="50" cy="49" r="1"/><circle cx="54" cy="49" r="1"/><circle cx="50" cy="41" r="1"/><circle cx="54" cy="41" r="1"/><circle cx="50" cy="33" r="1"/><circle cx="54" cy="33" r="1"/><path d="m13 50h-3a1 1 0 0 1 0-2h3a1 1 0 0 1 0 2z"/><path d="m13 42h-3a1 1 0 0 1 0-2h3a1 1 0 0 1 0 2z"/><path d="m13 34h-3a1 1 0 0 1 0-2h3a1 1 0 0 1 0 2z"/></g><path d="m13 32h-.38a3.963 3.963 0 0 1 -2.62 1h-1a1 1 0 0 0 1 1h3a1 1 0 0 0 0-2z" fill="#2d72bc"/><path d="m13 40h-.38a3.963 3.963 0 0 1 -2.62 1h-1a1 1 0 0 0 1 1h3a1 1 0 0 0 0-2z" fill="#2d72bc"/><path d="m13 48h-.38a3.963 3.963 0 0 1 -2.62 1h-1a1 1 0 0 0 1 1h3a1 1 0 0 0 0-2z" fill="#2d72bc"/><path d="m53.027 32.867a.979.979 0 0 0 -.027.133 1 1 0 0 0 2 0h-1a3.952 3.952 0 0 1 -.973-.133z" fill="#2d72bc"/><path d="m53.027 48.867a.979.979 0 0 0 -.027.133 1 1 0 0 0 2 0h-1a3.952 3.952 0 0 1 -.973-.133z" fill="#2d72bc"/><path d="m53.027 40.867a.979.979 0 0 0 -.027.133 1 1 0 0 0 2 0h-1a3.952 3.952 0 0 1 -.973-.133z" fill="#2d72bc"/></g><g><path d="m16 57h32a2 2 0 0 1 2 2v2a0 0 0 0 1 0 0h-36a0 0 0 0 1 0 0v-2a2 2 0 0 1 2-2z" fill="#d0d8da"/><path d="m18 57h-2a2 2 0 0 0 -2 2v2h36v-2h-30a2 2 0 0 1 -2-2z" fill="#93999a"/><g><path d="m18 33h28v8h-28z" fill="#d0d8da"/><path d="m22 33h-4v8h28v-4h-20a4 4 0 0 1 -4-4z" fill="#93999a"/><g fill="#57b7eb"><circle cx="33" cy="37" r="1"/><circle cx="37" cy="37" r="1"/><circle cx="41" cy="37" r="1"/><path d="m28 38h-6a1 1 0 0 1 0-2h6a1 1 0 0 1 0 2z"/></g><path d="m33 38a1 1 0 0 0 1-1h-2a1 1 0 0 0 1 1z" fill="#4891d3"/><path d="m37 38a1 1 0 0 0 1-1h-2a1 1 0 0 0 1 1z" fill="#4891d3"/><path d="m41 38a1 1 0 0 0 1-1h-2a1 1 0 0 0 1 1z" fill="#4891d3"/><path d="m21 37a1 1 0 0 0 1 1h6a1 1 0 0 0 1-1h-3a3.963 3.963 0 0 1 -2.62-1h-1.38a1 1 0 0 0 -1 1z" fill="#4891d3"/></g><g><path d="m18 25h28v8h-28z" fill="#d0d8da"/><path d="m22 25h-4v8h28v-4h-20a4 4 0 0 1 -4-4z" fill="#93999a"/><g fill="#57b7eb"><circle cx="33" cy="29" r="1"/><circle cx="37" cy="29" r="1"/><circle cx="41" cy="29" r="1"/><path d="m28 30h-6a1 1 0 0 1 0-2h6a1 1 0 0 1 0 2z"/></g><path d="m33 30a1 1 0 0 0 1-1h-2a1 1 0 0 0 1 1z" fill="#4891d3"/><path d="m37 30a1 1 0 0 0 1-1h-2a1 1 0 0 0 1 1z" fill="#4891d3"/><path d="m41 30a1 1 0 0 0 1-1h-2a1 1 0 0 0 1 1z" fill="#4891d3"/><path d="m21 29a1 1 0 0 0 1 1h6a1 1 0 0 0 1-1h-3a3.963 3.963 0 0 1 -2.62-1h-1.38a1 1 0 0 0 -1 1z" fill="#4891d3"/></g><g><path d="m18 49h28v8h-28z" fill="#d0d8da"/><path d="m22 49h-4v8h28v-4h-20a4 4 0 0 1 -4-4z" fill="#93999a"/><g fill="#57b7eb"><circle cx="33" cy="53" r="1"/><circle cx="37" cy="53" r="1"/><circle cx="41" cy="53" r="1"/><path d="m28 54h-6a1 1 0 0 1 0-2h6a1 1 0 0 1 0 2z"/></g><path d="m33 54a1 1 0 0 0 1-1h-2a1 1 0 0 0 1 1z" fill="#4891d3"/><path d="m37 54a1 1 0 0 0 1-1h-2a1 1 0 0 0 1 1z" fill="#4891d3"/><path d="m41 54a1 1 0 0 0 1-1h-2a1 1 0 0 0 1 1z" fill="#4891d3"/><path d="m21 53a1 1 0 0 0 1 1h6a1 1 0 0 0 1-1h-3a3.963 3.963 0 0 1 -2.62-1h-1.38a1 1 0 0 0 -1 1z" fill="#4891d3"/></g><g><path d="m18 41h28v8h-28z" fill="#d0d8da"/><path d="m22 41h-4v8h28v-4h-20a4 4 0 0 1 -4-4z" fill="#93999a"/><g fill="#57b7eb"><circle cx="33" cy="45" r="1"/><circle cx="37" cy="45" r="1"/><circle cx="41" cy="45" r="1"/><path d="m28 46h-6a1 1 0 0 1 0-2h6a1 1 0 0 1 0 2z"/></g><path d="m33 46a1 1 0 0 0 1-1h-2a1 1 0 0 0 1 1z" fill="#4891d3"/><path d="m37 46a1 1 0 0 0 1-1h-2a1 1 0 0 0 1 1z" fill="#4891d3"/><path d="m41 46a1 1 0 0 0 1-1h-2a1 1 0 0 0 1 1z" fill="#4891d3"/><path d="m21 45a1 1 0 0 0 1 1h6a1 1 0 0 0 1-1h-3a3.963 3.963 0 0 1 -2.62-1h-1.38a1 1 0 0 0 -1 1z" fill="#4891d3"/></g></g></g><rect fill="#d0d8da" height="34" rx="2" transform="matrix(.5 -.866 .866 .5 8.468 48.238)" width="4" x="44.009" y="-.215"/><path d="m60.72 23.282a1.993 1.993 0 0 1 -2.72.735l-13.884-8.017a2.434 2.434 0 0 1 -.961-3.173l-9.136-5.274a2 2 0 0 0 -2 3.464l25.981 15a1.994 1.994 0 0 0 2.72-2.735z" fill="#93999a"/><path d="m40.472 13.588a29.8 29.8 0 0 1 10.009-10.388 14.947 14.947 0 0 0 -14 24.249 29.792 29.792 0 0 1 3.991-13.861z" fill="#fcbc04"/><g fill="#f9e109"><path d="m34.071 13.47a14.92 14.92 0 0 1 12.641-7.456 29.841 29.841 0 0 1 3.769-2.814 14.956 14.956 0 0 0 -17.081 11.588 14.687 14.687 0 0 1 .671-1.318z"/><g><path d="m26 17a1 1 0 0 1 -.372-.071l-5-2a1 1 0 0 1 .744-1.858l5 2a1 1 0 0 1 -.372 1.929z"/><path d="m29 14a1 1 0 0 1 -.707-.293l-5-5a1 1 0 1 1 1.414-1.414l5 5a1 1 0 0 1 -.707 1.707z"/><path d="m25 21h-6a1 1 0 0 1 0-2h6a1 1 0 0 1 0 2z"/></g></g></g></g></g></svg>